<svg width="512" height="512" viewBox="0 0 512 512" fill="none" xmlns="http://www.w3.org/2000/svg">
  <!-- 배경 (필요 시 삭제 가능) -->
  <circle cx="256" cy="256" r="248" fill="#F8F8F8" opacity="0.8"/>
  
  <!-- 줄기 -->
  <path d="M256 420C256 420 280 350 260 280C240 210 230 170 260 120" 
        stroke="#7EB356" stroke-width="12" stroke-linecap="round"/>
  
  <!-- 줄기의 작은 잎 -->
  <path d="M260 200C260 200 290 190 310 210C330 230 300 260 280 240C260 220 260 200 260 200Z" 
        fill="#9BCE6A" stroke="#7EB356" stroke-width="4"/>
  
  <!-- 메인 콩 몸체 -->
  <path d="M320 130C320 180 290 220 245 220C200 220 170 180 170 130C170 80 200 40 245 40C290 40 320 80 320 130Z" 
        fill="#9BCE6A" stroke="#7EB356" stroke-width="4"/>
  
  <!-- 콩 내부 배아 -->
  <path d="M280 130C280 150 265 165 245 165C225 165 210 150 210 130C210 110 225 95 245 95C265 95 280 110 280 130Z" 
        fill="#E8F4D9" stroke="#7EB356" stroke-width="3"/>
  
  <!-- 콩 표면의 빛 반사 -->
  <path d="M200 80C210 70 230 65 245 65" 
        stroke="#FFFFFF" stroke-width="6" stroke-linecap="round" opacity="0.8"/>
  
  <!-- 배아의 작은 싹 -->
  <path d="M245 85C245 85 235 70 245 60C255 50 270 60 260 75C250 90 245 85 245 85Z" 
        fill="#9BCE6A" stroke="#7EB356" stroke-width="3"/>
  
  <!-- 작은 물방울 효과 -->
  <circle cx="290" cy="70" r="8" fill="#FFFFFF" opacity="0.7"/>
  <circle cx="190" cy="100" r="5" fill="#FFFFFF" opacity="0.5"/>
</svg>